<svg width="16" height="16" viewBox="0 0 16 16" fill="none" xmlns="http://www.w3.org/2000/svg">
<rect width="16" height="16" rx="4" fill="#6833FF"/>
<circle cx="8" cy="8" r="5.5" stroke="white"/>
<path d="M7.75391 5.79785C7.911 5.73059 8.089 5.73059 8.24609 5.79785C8.28804 5.81583 8.36836 5.86875 8.51855 6.06641C8.66845 6.26369 8.84439 6.544 9.10254 6.95703L9.60449 7.76074C9.89056 8.21845 10.087 8.53263 10.2109 8.77832C10.3364 9.02706 10.3463 9.13024 10.3428 9.1748C10.3283 9.35441 10.2374 9.51952 10.0928 9.62695C10.0569 9.65355 9.96401 9.69916 9.68652 9.72461C9.41247 9.74975 9.04184 9.75 8.50195 9.75H7.49805C6.95816 9.75 6.58753 9.74975 6.31348 9.72461C6.03599 9.69916 5.94313 9.65355 5.90723 9.62695C5.76258 9.51952 5.67167 9.35441 5.65723 9.1748C5.65371 9.13024 5.66361 9.02706 5.78906 8.77832C5.913 8.53263 6.10944 8.21845 6.39551 7.76074L6.89746 6.95703C7.15561 6.544 7.33155 6.26369 7.48145 6.06641C7.63164 5.86875 7.71196 5.81583 7.75391 5.79785Z" stroke="white"/>
</svg>
