<svg width="16" height="16" viewBox="0 0 12 12" fill="none" xmlns="http://www.w3.org/2000/svg">
  <defs>
    <clipPath id="geo-curators-clip">
      <circle cx="6" cy="6" r="6" />
    </clipPath>
  </defs>
  <g clip-path="url(#geo-curators-clip)">
    <rect width="12" height="12" fill="#6833FF" />
    <g transform="translate(2.5, 2)">
      <path
        d="M5.9088 7.05849C5.99719 7.20399 5.89245 7.39018 5.7222 7.39018H0.750041C0.579865 7.39018 0.475112 7.20412 0.56337 7.05862L1.00099 6.33717C1.06502 6.23161 1.20351 6.20066 1.31072 6.26191C1.87174 6.5824 2.52964 6.76713 3.23335 6.76713C3.93856 6.76707 4.59727 6.58117 5.15894 6.2593C5.26611 6.19788 5.4047 6.22871 5.46883 6.33427L5.9088 7.05849ZM3.04975 2.96342C3.13477 2.82339 3.33778 2.82339 3.4228 2.96342L4.88393 5.36983C4.94408 5.4689 4.91674 5.59845 4.81696 5.65743C4.35736 5.92909 3.81568 6.08836 3.23335 6.08842C2.65291 6.08842 2.11206 5.931 1.65321 5.66119C1.55317 5.60236 1.52567 5.47261 1.58592 5.37342L3.04975 2.96342Z"
        fill="white"
      />
      <path
        d="M3.23315 5.88965C1.65156 5.88959 0.389404 4.64781 0.389405 3.13965C0.389526 1.63158 1.65164 0.389711 3.23315 0.389648C4.81472 0.389648 6.07678 1.63154 6.0769 3.13965C6.0769 4.64785 4.8148 5.88965 3.23315 5.88965Z"
        stroke="white"
        stroke-width="0.77833"
      />
    </g>
  </g>
</svg>
