<svg width="16" height="16" viewBox="0 0 16 16" fill="none" xmlns="http://www.w3.org/2000/svg">
<g clip-path="url(#clip0_65729_1182)">
<mask id="path-1-inside-1_65729_1182" fill="white">
<path fill-rule="evenodd" clip-rule="evenodd" d="M13.7933 15.2819C13.9845 15.5969 13.7577 15.9998 13.3892 15.9998H2.62356C2.2551 15.9998 2.02832 15.5969 2.21946 15.2819L3.16696 13.7205C3.30562 13.492 3.60541 13.425 3.83748 13.5576C5.05203 14.2516 6.4761 14.6522 7.99966 14.6522C9.5271 14.6521 10.954 14.2491 12.1705 13.5517C12.4026 13.4187 12.7027 13.4854 12.8416 13.7141L13.7933 15.2819ZM7.6022 6.41584C7.78626 6.11269 8.22674 6.11269 8.4108 6.41584L11.5771 11.6321C11.7073 11.8466 11.6481 12.1271 11.432 12.2546C10.4362 12.8417 9.26042 13.1824 7.99966 13.1824C6.74301 13.1824 5.57016 12.8446 4.5763 12.2612C4.35962 12.134 4.30009 11.8531 4.43052 11.6383L7.6022 6.41584Z"/>
</mask>
<path fill-rule="evenodd" clip-rule="evenodd" d="M13.7933 15.2819C13.9845 15.5969 13.7577 15.9998 13.3892 15.9998H2.62356C2.2551 15.9998 2.02832 15.5969 2.21946 15.2819L3.16696 13.7205C3.30562 13.492 3.60541 13.425 3.83748 13.5576C5.05203 14.2516 6.4761 14.6522 7.99966 14.6522C9.5271 14.6521 10.954 14.2491 12.1705 13.5517C12.4026 13.4187 12.7027 13.4854 12.8416 13.7141L13.7933 15.2819ZM7.6022 6.41584C7.78626 6.11269 8.22674 6.11269 8.4108 6.41584L11.5771 11.6321C11.7073 11.8466 11.6481 12.1271 11.432 12.2546C10.4362 12.8417 9.26042 13.1824 7.99966 13.1824C6.74301 13.1824 5.57016 12.8446 4.5763 12.2612C4.35962 12.134 4.30009 11.8531 4.43052 11.6383L7.6022 6.41584Z" fill="#2A2B2E"/>
<path d="M7.99966 14.6522V15.6522H7.9997L7.99966 14.6522ZM7.6022 6.41584L8.45692 6.93493L8.45699 6.93482L7.6022 6.41584ZM8.4108 6.41584L9.26563 5.89695L9.26558 5.89686L8.4108 6.41584ZM7.99966 13.1824V14.1824H7.9997L7.99966 13.1824ZM4.43052 11.6383L3.5758 11.1192L4.43052 11.6383ZM12.1705 13.5517L12.6679 14.4193L12.1705 13.5517ZM12.8416 13.7141L13.6964 13.1952L12.8416 13.7141ZM11.432 12.2546L10.924 11.3932L11.432 12.2546ZM3.16696 13.7205L4.02187 14.2393L3.16696 13.7205ZM3.83748 13.5576L3.34135 14.4259L3.83748 13.5576ZM2.21946 15.2819L3.07438 15.8007L2.21946 15.2819ZM13.7933 15.2819L12.9385 15.8008L13.7933 15.2819ZM13.3892 15.9998V14.9998H2.62356V15.9998V16.9998H13.3892V15.9998ZM2.21946 15.2819L3.07438 15.8007L4.02187 14.2393L3.16696 13.7205L2.31204 13.2017L1.36455 14.7632L2.21946 15.2819ZM3.83748 13.5576L3.34135 14.4259C4.70467 15.2049 6.29942 15.6522 7.99966 15.6522V14.6522V13.6522C6.65278 13.6522 5.39939 13.2984 4.33361 12.6894L3.83748 13.5576ZM7.99966 14.6522L7.9997 15.6522C9.7045 15.6521 11.3025 15.202 12.6679 14.4193L12.1705 13.5517L11.6731 12.6842C10.6055 13.2962 9.3497 13.6521 7.99963 13.6522L7.99966 14.6522ZM12.8416 13.7141L11.9867 14.2331L12.9385 15.8008L13.7933 15.2819L14.6481 14.7629L13.6964 13.1952L12.8416 13.7141ZM7.6022 6.41584L8.45699 6.93482C8.25165 7.27303 7.76135 7.27303 7.55601 6.93482L8.4108 6.41584L9.26558 5.89686C8.69212 4.95235 7.32088 4.95235 6.74742 5.89686L7.6022 6.41584ZM8.4108 6.41584L7.55596 6.93474L10.7223 12.151L11.5771 11.6321L12.432 11.1132L9.26563 5.89695L8.4108 6.41584ZM11.432 12.2546L10.924 11.3932C10.0795 11.8911 9.07868 12.1824 7.99962 12.1824L7.99966 13.1824L7.9997 14.1824C9.44217 14.1824 10.7929 13.7923 11.9399 13.116L11.432 12.2546ZM7.99966 13.1824V12.1824C6.92371 12.1824 5.92527 11.8935 5.08257 11.3988L4.5763 12.2612L4.07004 13.1235C5.21505 13.7957 6.56232 14.1824 7.99966 14.1824V13.1824ZM4.43052 11.6383L5.28524 12.1574L8.45692 6.93493L7.6022 6.41584L6.74748 5.89676L3.5758 11.1192L4.43052 11.6383ZM4.5763 12.2612L5.08257 11.3988C5.38556 11.5767 5.42089 11.934 5.28524 12.1574L4.43052 11.6383L3.5758 11.1192C3.17929 11.7721 3.33368 12.6913 4.07004 13.1235L4.5763 12.2612ZM12.1705 13.5517L12.6679 14.4193C12.4629 14.5368 12.1491 14.5006 11.9867 14.2331L12.8416 13.7141L13.6964 13.1952C13.2563 12.4703 12.3423 12.3005 11.6731 12.6842L12.1705 13.5517ZM11.5771 11.6321L10.7223 12.151C10.5868 11.9279 10.622 11.5713 10.924 11.3932L11.432 12.2546L11.9399 13.116C12.6742 12.683 12.8278 11.7654 12.432 11.1132L11.5771 11.6321ZM3.16696 13.7205L4.02187 14.2393C3.85968 14.5066 3.54631 14.543 3.34135 14.4259L3.83748 13.5576L4.33361 12.6894C3.66451 12.3071 2.75156 12.4774 2.31204 13.2017L3.16696 13.7205ZM2.62356 15.9998V14.9998C3.03462 14.9998 3.28762 15.4493 3.07438 15.8007L2.21946 15.2819L1.36455 14.7632C0.769008 15.7446 1.47557 16.9998 2.62356 16.9998V15.9998ZM13.3892 15.9998V16.9998C14.5374 16.9998 15.2439 15.7444 14.6481 14.7629L13.7933 15.2819L12.9385 15.8008C12.7251 15.4494 12.9781 14.9998 13.3892 14.9998V15.9998Z" fill="#2A2B2E" mask="url(#path-1-inside-1_65729_1182)"/>
<path d="M8 13.0937C4.39616 13.0937 1.5 10.2607 1.5 6.79687C1.50003 3.33304 4.39618 0.499999 8 0.499999C11.6038 0.5 14.5 3.33304 14.5 6.79687C14.5 10.2607 11.6038 13.0937 8 13.0937Z" stroke="#2A2B2E"/>
</g>
<defs>
<clipPath id="clip0_65729_1182">
<rect width="16" height="16" fill="white"/>
</clipPath>
</defs>
</svg>
