<svg width="1258" height="585" viewBox="0 0 1258 585" fill="none" xmlns="http://www.w3.org/2000/svg">
<g opacity="0.3" filter="url(#filter0_d_3734_32483)">
<path d="M306.538 63.5458H215.092L60 356.646V424.059H259.718V513.454H343.117V424.059H411.153V347.12H343.117V254.061H259.718V347.12H160.225L306.538 63.5458Z" fill="#FBFBFB"/>
<path d="M629.58 520.782C734.926 520.782 806.62 425.524 806.62 288.5C806.62 151.476 734.926 56.2184 629.58 56.2184C524.234 56.2184 452.541 151.476 452.541 288.5C452.541 425.524 524.234 520.782 629.58 520.782ZM629.58 139.752C689.569 139.752 715.174 204.967 715.174 288.5C715.174 372.034 689.569 437.248 629.58 437.248C568.86 437.248 543.987 372.034 543.987 288.5C543.987 204.967 568.86 139.752 629.58 139.752Z" fill="#FBFBFB"/>
<path d="M1093.39 63.5458H1001.94L846.847 356.646V424.059H1046.57V513.454H1129.96V424.059H1198V347.12H1129.96V254.061H1046.57V347.12H947.072L1093.39 63.5458Z" fill="#FBFBFB"/>
</g>
<defs>
<filter id="filter0_d_3734_32483" x="0.398041" y="0.951632" width="1257.2" height="583.767" filterUnits="userSpaceOnUse" color-interpolation-filters="sRGB">
<feFlood flood-opacity="0" result="BackgroundImageFix"/>
<feColorMatrix in="SourceAlpha" type="matrix" values="0 0 0 0 0 0 0 0 0 0 0 0 0 0 0 0 0 0 127 0" result="hardAlpha"/>
<feOffset dy="4.33524"/>
<feGaussianBlur stdDeviation="29.801"/>
<feComposite in2="hardAlpha" operator="out"/>
<feColorMatrix type="matrix" values="0 0 0 0 0 0 0 0 0 0 0 0 0 0 0 0 0 0 0.07 0"/>
<feBlend mode="normal" in2="BackgroundImageFix" result="effect1_dropShadow_3734_32483"/>
<feBlend mode="normal" in="SourceGraphic" in2="effect1_dropShadow_3734_32483" result="shape"/>
</filter>
</defs>
</svg>
