<svg width="17" height="16" viewBox="0 0 17 16" fill="none" xmlns="http://www.w3.org/2000/svg">
<path d="M13.8876 2.83749C12.8374 2.34605 11.7264 1.99713 10.5838 1.79999C10.4285 2.08442 10.2874 2.37645 10.1613 2.67499C8.94879 2.48936 7.71508 2.48936 6.50256 2.67499C6.37524 2.37614 6.23255 2.08409 6.07506 1.79999C4.93227 1.99743 3.82112 2.34721 2.77131 2.83999C0.685057 5.99686 0.118807 9.07499 0.401932 12.11C1.62114 13.0304 2.99084 13.7323 4.45006 14.1844C4.77827 13.7332 5.06844 13.2555 5.31756 12.7562C4.84347 12.5759 4.38644 12.3536 3.95193 12.0919C4.06631 12.0069 4.17818 11.9181 4.28631 11.8269C6.91943 13.0581 9.77943 13.0581 12.3807 11.8269C12.4907 11.9181 12.6026 12.0069 12.7157 12.0919C12.2803 12.354 11.8225 12.5768 11.3476 12.7575C11.5965 13.2568 11.8867 13.7345 12.2151 14.1856C13.6754 13.7339 15.0461 13.0316 16.2657 12.11C16.5982 8.59186 15.6982 5.54186 13.8876 2.83749ZM5.67568 10.2431C4.88568 10.2431 4.23818 9.50561 4.23818 8.60686C4.23818 7.70811 4.87256 6.96936 5.67568 6.96936C6.47881 6.96936 7.12818 7.70749 7.11318 8.60686C7.11568 9.50561 6.48006 10.2431 5.67568 10.2431ZM10.9919 10.2431C10.2013 10.2431 9.55443 9.50561 9.55443 8.60686C9.55443 7.70811 10.1888 6.96936 10.9919 6.96936C11.7951 6.96936 12.4438 7.70749 12.4294 8.60686C12.4301 9.50561 11.7957 10.2431 10.9919 10.2431Z" fill="#606060"/>
</svg>
