<svg width="56" height="56" viewBox="0 0 56 56" fill="none" xmlns="http://www.w3.org/2000/svg">
<rect width="56" height="56" rx="3.49091" fill="#F0F3FF"/>
<rect x="14.7559" y="14.2455" width="27.5091" height="27.5091" rx="5.5" stroke="#3963FE"/>
<path d="M21.3828 22.1546C21.1067 22.1546 20.8828 22.3785 20.8828 22.6546C20.8828 22.9307 21.1067 23.1546 21.3828 23.1546V22.1546ZM35.6374 23.1546C35.9135 23.1546 36.1374 22.9307 36.1374 22.6546C36.1374 22.3785 35.9135 22.1546 35.6374 22.1546V23.1546ZM21.3828 23.1546H35.6374V22.1546H21.3828V23.1546Z" fill="#3963FE"/>
<path d="M21.3828 27.5C21.1067 27.5 20.8828 27.7239 20.8828 28C20.8828 28.2761 21.1067 28.5 21.3828 28.5V27.5ZM35.6374 28.5C35.9135 28.5 36.1374 28.2761 36.1374 28C36.1374 27.7239 35.9135 27.5 35.6374 27.5V28.5ZM21.3828 28.5H35.6374V27.5H21.3828V28.5Z" fill="#3963FE"/>
<path d="M21.3828 32.8455C21.1067 32.8455 20.8828 33.0693 20.8828 33.3455C20.8828 33.6216 21.1067 33.8455 21.3828 33.8455V32.8455ZM35.6374 33.8455C35.9135 33.8455 36.1374 33.6216 36.1374 33.3455C36.1374 33.0693 35.9135 32.8455 35.6374 32.8455V33.8455ZM21.3828 33.8455H35.6374V32.8455H21.3828V33.8455Z" fill="#3963FE"/>
</svg>
