<svg width="44" height="44" viewBox="0 0 44 44" fill="none" xmlns="http://www.w3.org/2000/svg">
<rect width="44" height="44" rx="3.49091" fill="#F0F3FF"/>
<rect x="11.7031" y="11.2998" width="21.4" height="21.4" rx="3.5" stroke="#3963FE"/>
<path d="M16.8027 17.2998C16.5266 17.2998 16.3027 17.5237 16.3027 17.7998C16.3027 18.0759 16.5266 18.2998 16.8027 18.2998V17.2998ZM28.0027 18.2998C28.2789 18.2998 28.5027 18.0759 28.5027 17.7998C28.5027 17.5237 28.2789 17.2998 28.0027 17.2998V18.2998ZM16.8027 18.2998H28.0027V17.2998H16.8027V18.2998Z" fill="#3963FE"/>
<path d="M16.8027 21.4998C16.5266 21.4998 16.3027 21.7237 16.3027 21.9998C16.3027 22.276 16.5266 22.4998 16.8027 22.4998V21.4998ZM28.0027 22.4998C28.2789 22.4998 28.5027 22.276 28.5027 21.9998C28.5027 21.7237 28.2789 21.4998 28.0027 21.4998V22.4998ZM16.8027 22.4998H28.0027V21.4998H16.8027V22.4998Z" fill="#3963FE"/>
<path d="M16.8027 25.6998C16.5266 25.6998 16.3027 25.9237 16.3027 26.1998C16.3027 26.476 16.5266 26.6998 16.8027 26.6998V25.6998ZM28.0027 26.6998C28.2789 26.6998 28.5027 26.476 28.5027 26.1998C28.5027 25.9237 28.2789 25.6998 28.0027 25.6998V26.6998ZM16.8027 26.6998H28.0027V25.6998H16.8027V26.6998Z" fill="#3963FE"/>
</svg>
