<svg width="14" height="14" viewBox="0 0 14 14" fill="none" xmlns="http://www.w3.org/2000/svg">
<rect x="0.5" y="0.5" width="13" height="13" rx="3.5" stroke="#606060"/>
<path d="M3.5 3.875C3.22386 3.875 3 4.09886 3 4.375C3 4.65114 3.22386 4.875 3.5 4.875V3.875ZM10.5 4.875C10.7761 4.875 11 4.65114 11 4.375C11 4.09886 10.7761 3.875 10.5 3.875V4.875ZM3.5 4.875H10.5V3.875H3.5V4.875Z" fill="#606060"/>
<path d="M3.5 6.5C3.22386 6.5 3 6.72386 3 7C3 7.27614 3.22386 7.5 3.5 7.5V6.5ZM10.5 7.5C10.7761 7.5 11 7.27614 11 7C11 6.72386 10.7761 6.5 10.5 6.5V7.5ZM3.5 7.5H10.5V6.5H3.5V7.5Z" fill="#606060"/>
<path d="M3.5 9.125C3.22386 9.125 3 9.34886 3 9.625C3 9.90114 3.22386 10.125 3.5 10.125V9.125ZM10.5 10.125C10.7761 10.125 11 9.90114 11 9.625C11 9.34886 10.7761 9.125 10.5 9.125V10.125ZM3.5 10.125H10.5V9.125H3.5V10.125Z" fill="#606060"/>
</svg>
