<svg width="80" height="80" viewBox="0 0 80 80" fill="none" xmlns="http://www.w3.org/2000/svg">
<g clip-path="url(#clip0_52940_60597)">
<g opacity="0.3">
<mask id="path-2-inside-1_52940_60597" fill="white">
<path d="M0 12C0 5.37258 5.37258 0 12 0H68C74.6274 0 80 5.37258 80 12V68C80 74.6274 74.6274 80 68 80H12C5.37258 80 0 74.6274 0 68V12Z"/>
</mask>
<path d="M0 12C0 5.37258 5.37258 0 12 0H68C74.6274 0 80 5.37258 80 12V68C80 74.6274 74.6274 80 68 80H12C5.37258 80 0 74.6274 0 68V12Z" fill="url(#paint0_linear_52940_60597)"/>
<path d="M12 80V79.5C11.6958 79.5 11.3944 79.4882 11.0963 79.465L11.0576 79.9635L11.0188 80.462C11.3427 80.4872 11.6699 80.5 12 80.5V80ZM9.19744 79.671L9.31379 79.1847C8.72284 79.0433 8.14964 78.8563 7.59807 78.6276L7.40654 79.0894L7.21502 79.5513C7.8149 79.8001 8.43836 80.0035 9.0811 80.1572L9.19744 79.671ZM5.72928 78.2332L5.99093 77.8072C5.47631 77.4911 4.98841 77.1357 4.53143 76.745L4.20653 77.1251L3.88163 77.5051C4.37811 77.9296 4.90828 78.3158 5.46763 78.6593L5.72928 78.2332ZM2.8749 75.7935L3.25496 75.4686C2.8643 75.0116 2.50887 74.5237 2.19285 74.0091L1.76677 74.2707L1.34069 74.5324C1.68419 75.0917 2.07043 75.6219 2.49485 76.1184L2.8749 75.7935ZM0.910565 72.5935L1.37243 72.4019C1.1437 71.8504 0.956688 71.2772 0.815303 70.6862L0.329027 70.8026L-0.157249 70.9189C-0.00347148 71.5616 0.199943 72.1851 0.448702 72.785L0.910565 72.5935ZM0.0364635 68.9424L0.534961 68.9037C0.511803 68.6056 0.5 68.3042 0.5 68H0H-0.5C-0.5 68.3301 -0.487193 68.6573 -0.462034 68.9812L0.0364635 68.9424ZM0 68H0.5V67H0H-0.5V68H0ZM0 65H0.5V63H0H-0.5V65H0ZM0 61H0.5V59H0H-0.5V61H0ZM0 57H0.5V55H0H-0.5V57H0ZM0 53H0.5V51H0H-0.5V53H0ZM0 49H0.5V47H0H-0.5V49H0ZM0 45H0.5V43H0H-0.5V45H0ZM0 41H0.5V39H0H-0.5V41H0ZM0 37H0.5V35H0H-0.5V37H0ZM0 33H0.5V31H0H-0.5V33H0ZM0 29H0.5V27H0H-0.5V29H0ZM0 25H0.5V23H0H-0.5V25H0ZM0 21H0.5V19H0H-0.5V21H0ZM0 17H0.5V15H0H-0.5V17H0ZM0 13H0.5V12H0H-0.5V13H0ZM0 12H0.5C0.5 11.6958 0.511803 11.3944 0.534962 11.0963L0.0364637 11.0576L-0.462034 11.0188C-0.487193 11.3427 -0.5 11.6699 -0.5 12H0ZM0.329027 9.19744L0.815303 9.31379C0.956689 8.72284 1.1437 8.14964 1.37243 7.59807L0.910566 7.40654L0.448704 7.21502C0.199944 7.8149 -0.00347059 8.43836 -0.157248 9.0811L0.329027 9.19744ZM1.76677 5.72928L2.19285 5.99093C2.50887 5.47631 2.8643 4.98841 3.25496 4.53143L2.87491 4.20653L2.49485 3.88163C2.07043 4.37811 1.68419 4.90828 1.3407 5.46763L1.76677 5.72928ZM4.20654 2.8749L4.53144 3.25496C4.98841 2.8643 5.47632 2.50887 5.99093 2.19285L5.72929 1.76677L5.46764 1.34069C4.90829 1.68419 4.37811 2.07043 3.88164 2.49485L4.20654 2.8749ZM7.40655 0.910565L7.59808 1.37243C8.14964 1.1437 8.72285 0.956688 9.31379 0.815303L9.19745 0.329027L9.0811 -0.157249C8.43836 -0.00347148 7.8149 0.199943 7.21502 0.448702L7.40655 0.910565ZM11.0576 0.0364635L11.0963 0.534961C11.3944 0.511803 11.6958 0.5 12 0.5V0V-0.5C11.6699 -0.5 11.3427 -0.487193 11.0188 -0.462034L11.0576 0.0364635ZM12 0V0.5H13V0V-0.5H12V0ZM15 0V0.5H17V0V-0.5H15V0ZM19 0V0.5H21V0V-0.5H19V0ZM23 0V0.5H25V0V-0.5H23V0ZM27 0V0.5H29V0V-0.5H27V0ZM31 0V0.5H33V0V-0.5H31V0ZM35 0V0.5H37V0V-0.5H35V0ZM39 0V0.5H41V0V-0.5H39V0ZM43 0V0.5H45V0V-0.5H43V0ZM47 0V0.5H49V0V-0.5H47V0ZM51 0V0.5H53V0V-0.5H51V0ZM55 0V0.5H57V0V-0.5H55V0ZM59 0V0.5H61V0V-0.5H59V0ZM63 0V0.5H65V0V-0.5H63V0ZM67 0V0.5H68V0V-0.5H67V0ZM68 0V0.5C68.3042 0.5 68.6056 0.511803 68.9037 0.534962L68.9424 0.0364637L68.9812 -0.462034C68.6573 -0.487193 68.3301 -0.5 68 -0.5V0ZM70.8026 0.329027L70.6862 0.815303C71.2772 0.956689 71.8504 1.1437 72.4019 1.37243L72.5935 0.910566L72.785 0.448704C72.1851 0.199944 71.5616 -0.00347059 70.9189 -0.157248L70.8026 0.329027ZM74.2707 1.76677L74.0091 2.19285C74.5237 2.50887 75.0116 2.8643 75.4686 3.25496L75.7935 2.87491L76.1184 2.49485C75.6219 2.07043 75.0917 1.68419 74.5324 1.3407L74.2707 1.76677ZM77.1251 4.20654L76.745 4.53144C77.1357 4.98841 77.4911 5.47632 77.8072 5.99093L78.2332 5.72929L78.6593 5.46764C78.3158 4.90829 77.9296 4.37811 77.5051 3.88164L77.1251 4.20654ZM79.0894 7.40655L78.6276 7.59808C78.8563 8.14964 79.0433 8.72285 79.1847 9.31379L79.671 9.19745L80.1572 9.0811C80.0035 8.43836 79.8001 7.8149 79.5513 7.21502L79.0894 7.40655ZM79.9635 11.0576L79.465 11.0963C79.4882 11.3944 79.5 11.6958 79.5 12H80H80.5C80.5 11.6699 80.4872 11.3427 80.462 11.0188L79.9635 11.0576ZM80 12H79.5V13H80H80.5V12H80ZM80 15H79.5V17H80H80.5V15H80ZM80 19H79.5V21H80H80.5V19H80ZM80 23H79.5V25H80H80.5V23H80ZM80 27H79.5V29H80H80.5V27H80ZM80 31H79.5V33H80H80.5V31H80ZM80 35H79.5V37H80H80.5V35H80ZM80 39H79.5V41H80H80.5V39H80ZM80 43H79.5V45H80H80.5V43H80ZM80 47H79.5V49H80H80.5V47H80ZM80 51H79.5V53H80H80.5V51H80ZM80 55H79.5V57H80H80.5V55H80ZM80 59H79.5V61H80H80.5V59H80ZM80 63H79.5V65H80H80.5V63H80ZM80 67H79.5V68H80H80.5V67H80ZM80 68H79.5C79.5 68.3042 79.4882 68.6056 79.465 68.9037L79.9635 68.9424L80.462 68.9812C80.4872 68.6573 80.5 68.3301 80.5 68H80ZM79.671 70.8026L79.1847 70.6862C79.0433 71.2772 78.8563 71.8504 78.6276 72.4019L79.0894 72.5935L79.5513 72.785C79.8001 72.1851 80.0035 71.5616 80.1572 70.9189L79.671 70.8026ZM78.2332 74.2707L77.8072 74.0091C77.4911 74.5237 77.1357 75.0116 76.745 75.4686L77.1251 75.7935L77.5051 76.1184C77.9296 75.6219 78.3158 75.0917 78.6593 74.5324L78.2332 74.2707ZM75.7935 77.1251L75.4686 76.745C75.0116 77.1357 74.5237 77.4911 74.0091 77.8072L74.2707 78.2332L74.5324 78.6593C75.0917 78.3158 75.6219 77.9296 76.1184 77.5051L75.7935 77.1251ZM72.5935 79.0894L72.4019 78.6276C71.8504 78.8563 71.2772 79.0433 70.6862 79.1847L70.8026 79.671L70.9189 80.1572C71.5616 80.0035 72.1851 79.8001 72.785 79.5513L72.5935 79.0894ZM68.9424 79.9635L68.9037 79.465C68.6056 79.4882 68.3042 79.5 68 79.5V80V80.5C68.3301 80.5 68.6573 80.4872 68.9812 80.462L68.9424 79.9635ZM68 80V79.5H67V80V80.5H68V80ZM65 80V79.5H63V80V80.5H65V80ZM61 80V79.5H59V80V80.5H61V80ZM57 80V79.5H55V80V80.5H57V80ZM53 80V79.5H51V80V80.5H53V80ZM49 80V79.5H47V80V80.5H49V80ZM45 80V79.5H43V80V80.5H45V80ZM41 80V79.5H39V80V80.5H41V80ZM37 80V79.5H35V80V80.5H37V80ZM33 80V79.5H31V80V80.5H33V80ZM29 80V79.5H27V80V80.5H29V80ZM25 80V79.5H23V80V80.5H25V80ZM21 80V79.5H19V80V80.5H21V80ZM17 80V79.5H15V80V80.5H17V80ZM13 80V79.5H12V80V80.5H13V80ZM12 80V79C11.7087 79 11.4202 78.9887 11.135 78.9665L11.0576 79.9635L10.9801 80.9605C11.3168 80.9867 11.657 81 12 81V80ZM9.19744 79.671L9.43013 78.6984C8.86509 78.5632 8.31701 78.3844 7.7896 78.1657L7.40654 79.0894L7.02349 80.0132C7.64753 80.2719 8.29612 80.4836 8.96476 80.6435L9.19744 79.671ZM5.72928 78.2332L6.25258 77.3811C5.76033 77.0788 5.29356 76.7388 4.85633 76.365L4.20653 77.1251L3.55673 77.8852C4.07295 78.3265 4.62427 78.7282 5.20599 79.0854L5.72928 78.2332ZM2.8749 75.7935L3.63501 75.1437C3.26123 74.7064 2.92121 74.2397 2.61892 73.7474L1.76677 74.2707L0.914619 74.794C1.27184 75.3757 1.67349 75.927 2.1148 76.4433L2.8749 75.7935ZM0.910565 72.5935L1.83429 72.2104C1.61558 71.683 1.43677 71.1349 1.30158 70.5699L0.329027 70.8026L-0.643525 71.0352C-0.483551 71.7039 -0.271938 72.3525 -0.0131608 72.9765L0.910565 72.5935ZM0.0364635 68.9424L1.03346 68.865C1.0113 68.5798 1 68.2913 1 68H0H-1C-1 68.343 -0.986691 68.6832 -0.960532 69.0199L0.0364635 68.9424ZM0 68H1V67H0H-1V68H0ZM0 65H1V63H0H-1V65H0ZM0 61H1V59H0H-1V61H0ZM0 57H1V55H0H-1V57H0ZM0 53H1V51H0H-1V53H0ZM0 49H1V47H0H-1V49H0ZM0 45H1V43H0H-1V45H0ZM0 41H1V39H0H-1V41H0ZM0 37H1V35H0H-1V37H0ZM0 33H1V31H0H-1V33H0ZM0 29H1V27H0H-1V29H0ZM0 25H1V23H0H-1V25H0ZM0 21H1V19H0H-1V21H0ZM0 17H1V15H0H-1V17H0ZM0 13H1V12H0H-1V13H0ZM0 12H1C1 11.7087 1.0113 11.4202 1.03346 11.135L0.0364637 11.0576L-0.960532 10.9801C-0.986691 11.3168 -1 11.657 -1 12H0ZM0.329027 9.19744L1.30158 9.43013C1.43677 8.86509 1.61558 8.31701 1.83429 7.7896L0.910566 7.40654L-0.0131595 7.02349C-0.271936 7.64753 -0.48355 8.29612 -0.643524 8.96476L0.329027 9.19744ZM1.76677 5.72928L2.61892 6.25258C2.92121 5.76033 3.26124 5.29356 3.63501 4.85633L2.87491 4.20653L2.1148 3.55673C1.67349 4.07295 1.27185 4.62427 0.914621 5.20599L1.76677 5.72928ZM4.20654 2.8749L4.85634 3.63501C5.29356 3.26123 5.76033 2.92121 6.25258 2.61892L5.72929 1.76677L5.20599 0.914619C4.62427 1.27184 4.07296 1.67349 3.55674 2.1148L4.20654 2.8749ZM7.40655 0.910565L7.7896 1.83429C8.31701 1.61558 8.86509 1.43677 9.43013 1.30158L9.19745 0.329027L8.96476 -0.643525C8.29612 -0.483551 7.64753 -0.271938 7.02349 -0.0131608L7.40655 0.910565ZM11.0576 0.0364635L11.135 1.03346C11.4202 1.0113 11.7087 1 12 1V0V-1C11.657 -1 11.3168 -0.986691 10.9801 -0.960532L11.0576 0.0364635ZM12 0V1H13V0V-1H12V0ZM15 0V1H17V0V-1H15V0ZM19 0V1H21V0V-1H19V0ZM23 0V1H25V0V-1H23V0ZM27 0V1H29V0V-1H27V0ZM31 0V1H33V0V-1H31V0ZM35 0V1H37V0V-1H35V0ZM39 0V1H41V0V-1H39V0ZM43 0V1H45V0V-1H43V0ZM47 0V1H49V0V-1H47V0ZM51 0V1H53V0V-1H51V0ZM55 0V1H57V0V-1H55V0ZM59 0V1H61V0V-1H59V0ZM63 0V1H65V0V-1H63V0ZM67 0V1H68V0V-1H67V0ZM68 0V1C68.2913 1 68.5798 1.0113 68.865 1.03346L68.9424 0.0364637L69.0199 -0.960532C68.6832 -0.986691 68.343 -1 68 -1V0ZM70.8026 0.329027L70.5699 1.30158C71.1349 1.43677 71.683 1.61558 72.2104 1.83429L72.5935 0.910566L72.9765 -0.0131595C72.3525 -0.271936 71.7039 -0.48355 71.0352 -0.643524L70.8026 0.329027ZM74.2707 1.76677L73.7474 2.61892C74.2397 2.92121 74.7064 3.26124 75.1437 3.63501L75.7935 2.87491L76.4433 2.1148C75.927 1.67349 75.3757 1.27185 74.794 0.914621L74.2707 1.76677ZM77.1251 4.20654L76.365 4.85634C76.7388 5.29356 77.0788 5.76033 77.3811 6.25258L78.2332 5.72929L79.0854 5.20599C78.7282 4.62427 78.3265 4.07296 77.8852 3.55674L77.1251 4.20654ZM79.0894 7.40655L78.1657 7.7896C78.3844 8.31701 78.5632 8.86509 78.6984 9.43013L79.671 9.19745L80.6435 8.96476C80.4836 8.29612 80.2719 7.64753 80.0132 7.02349L79.0894 7.40655ZM79.9635 11.0576L78.9665 11.135C78.9887 11.4202 79 11.7087 79 12H80H81C81 11.657 80.9867 11.3168 80.9605 10.9801L79.9635 11.0576ZM80 12H79V13H80H81V12H80ZM80 15H79V17H80H81V15H80ZM80 19H79V21H80H81V19H80ZM80 23H79V25H80H81V23H80ZM80 27H79V29H80H81V27H80ZM80 31H79V33H80H81V31H80ZM80 35H79V37H80H81V35H80ZM80 39H79V41H80H81V39H80ZM80 43H79V45H80H81V43H80ZM80 47H79V49H80H81V47H80ZM80 51H79V53H80H81V51H80ZM80 55H79V57H80H81V55H80ZM80 59H79V61H80H81V59H80ZM80 63H79V65H80H81V63H80ZM80 67H79V68H80H81V67H80ZM80 68H79C79 68.2913 78.9887 68.5798 78.9665 68.865L79.9635 68.9424L80.9605 69.0199C80.9867 68.6832 81 68.343 81 68H80ZM79.671 70.8026L78.6984 70.5699C78.5632 71.1349 78.3844 71.683 78.1657 72.2104L79.0894 72.5935L80.0132 72.9765C80.2719 72.3525 80.4836 71.7039 80.6435 71.0352L79.671 70.8026ZM78.2332 74.2707L77.3811 73.7474C77.0788 74.2397 76.7388 74.7064 76.365 75.1437L77.1251 75.7935L77.8852 76.4433C78.3265 75.927 78.7282 75.3757 79.0854 74.794L78.2332 74.2707ZM75.7935 77.1251L75.1437 76.365C74.7064 76.7388 74.2397 77.0788 73.7474 77.3811L74.2707 78.2332L74.794 79.0854C75.3757 78.7282 75.927 78.3265 76.4433 77.8852L75.7935 77.1251ZM72.5935 79.0894L72.2104 78.1657C71.683 78.3844 71.1349 78.5632 70.5699 78.6984L70.8026 79.671L71.0352 80.6435C71.7039 80.4836 72.3525 80.2719 72.9765 80.0132L72.5935 79.0894ZM68.9424 79.9635L68.865 78.9665C68.5798 78.9887 68.2913 79 68 79V80V81C68.343 81 68.6832 80.9867 69.0199 80.9605L68.9424 79.9635ZM68 80V79H67V80V81H68V80ZM65 80V79H63V80V81H65V80ZM61 80V79H59V80V81H61V80ZM57 80V79H55V80V81H57V80ZM53 80V79H51V80V81H53V80ZM49 80V79H47V80V81H49V80ZM45 80V79H43V80V81H45V80ZM41 80V79H39V80V81H41V80ZM37 80V79H35V80V81H37V80ZM33 80V79H31V80V81H33V80ZM29 80V79H27V80V81H29V80ZM25 80V79H23V80V81H25V80ZM21 80V79H19V80V81H21V80ZM17 80V79H15V80V81H17V80ZM13 80V79H12V80V81H13V80Z" fill="#DBDBDB" mask="url(#path-2-inside-1_52940_60597)"/>
</g>
<path d="M15.2139 69.8813L7 80H74L66.3752 70.0468C65.5877 69.0189 64.0744 68.9215 63.1617 69.84C62.266 70.7415 60.7864 70.6672 59.9855 69.6805L56.0624 64.8477C55.3124 63.9237 53.9023 63.9237 53.1523 64.8477C52.4148 65.7561 51.0344 65.7742 50.2735 64.8852L43.1641 56.58C41.5588 54.7046 38.6547 54.7167 37.0651 56.6054L25.8516 69.9283C24.4619 71.5795 21.9124 71.5568 20.5522 69.8813C19.1764 68.1863 16.5897 68.1863 15.2139 69.8813Z" fill="#F0F0F0"/>
<mask id="path-5-inside-2_52940_60597" fill="white">
<path d="M0 12C0 5.37258 5.37258 0 12 0H68C74.6274 0 80 5.37258 80 12V68C80 74.6274 74.6274 80 68 80H12C5.37258 80 0 74.6274 0 68V12Z"/>
</mask>
<path d="M12 80V79.5C11.6958 79.5 11.3944 79.4882 11.0963 79.465L11.0576 79.9635L11.0188 80.462C11.3427 80.4872 11.6699 80.5 12 80.5V80ZM9.19744 79.671L9.31379 79.1847C8.72284 79.0433 8.14964 78.8563 7.59807 78.6276L7.40654 79.0894L7.21502 79.5513C7.8149 79.8001 8.43836 80.0035 9.0811 80.1572L9.19744 79.671ZM5.72928 78.2332L5.99093 77.8072C5.47631 77.4911 4.98841 77.1357 4.53143 76.745L4.20653 77.1251L3.88163 77.5051C4.37811 77.9296 4.90828 78.3158 5.46763 78.6593L5.72928 78.2332ZM2.8749 75.7935L3.25496 75.4686C2.8643 75.0116 2.50887 74.5237 2.19285 74.0091L1.76677 74.2707L1.34069 74.5324C1.68419 75.0917 2.07043 75.6219 2.49485 76.1184L2.8749 75.7935ZM0.910565 72.5935L1.37243 72.4019C1.1437 71.8504 0.956688 71.2772 0.815303 70.6862L0.329027 70.8026L-0.157249 70.9189C-0.00347148 71.5616 0.199943 72.1851 0.448702 72.785L0.910565 72.5935ZM0.0364635 68.9424L0.534961 68.9037C0.511803 68.6056 0.5 68.3042 0.5 68H0H-0.5C-0.5 68.3301 -0.487193 68.6573 -0.462034 68.9812L0.0364635 68.9424ZM0 68H0.5V67H0H-0.5V68H0ZM0 65H0.5V63H0H-0.5V65H0ZM0 61H0.5V59H0H-0.5V61H0ZM0 57H0.5V55H0H-0.5V57H0ZM0 53H0.5V51H0H-0.5V53H0ZM0 49H0.5V47H0H-0.5V49H0ZM0 45H0.5V43H0H-0.5V45H0ZM0 41H0.5V39H0H-0.5V41H0ZM0 37H0.5V35H0H-0.5V37H0ZM0 33H0.5V31H0H-0.5V33H0ZM0 29H0.5V27H0H-0.5V29H0ZM0 25H0.5V23H0H-0.5V25H0ZM0 21H0.5V19H0H-0.5V21H0ZM0 17H0.5V15H0H-0.5V17H0ZM0 13H0.5V12H0H-0.5V13H0ZM0 12H0.5C0.5 11.6958 0.511803 11.3944 0.534962 11.0963L0.0364637 11.0576L-0.462034 11.0188C-0.487193 11.3427 -0.5 11.6699 -0.5 12H0ZM0.329027 9.19744L0.815303 9.31379C0.956689 8.72284 1.1437 8.14964 1.37243 7.59807L0.910566 7.40654L0.448704 7.21502C0.199944 7.8149 -0.00347059 8.43836 -0.157248 9.0811L0.329027 9.19744ZM1.76677 5.72928L2.19285 5.99093C2.50887 5.47631 2.8643 4.98841 3.25496 4.53143L2.87491 4.20653L2.49485 3.88163C2.07043 4.37811 1.68419 4.90828 1.3407 5.46763L1.76677 5.72928ZM4.20654 2.8749L4.53144 3.25496C4.98841 2.8643 5.47632 2.50887 5.99093 2.19285L5.72929 1.76677L5.46764 1.34069C4.90829 1.68419 4.37811 2.07043 3.88164 2.49485L4.20654 2.8749ZM7.40655 0.910565L7.59808 1.37243C8.14964 1.1437 8.72285 0.956688 9.31379 0.815303L9.19745 0.329027L9.0811 -0.157249C8.43836 -0.00347148 7.8149 0.199943 7.21502 0.448702L7.40655 0.910565ZM11.0576 0.0364635L11.0963 0.534961C11.3944 0.511803 11.6958 0.5 12 0.5V0V-0.5C11.6699 -0.5 11.3427 -0.487193 11.0188 -0.462034L11.0576 0.0364635ZM12 0V0.5H13V0V-0.5H12V0ZM15 0V0.5H17V0V-0.5H15V0ZM19 0V0.5H21V0V-0.5H19V0ZM23 0V0.5H25V0V-0.5H23V0ZM27 0V0.5H29V0V-0.5H27V0ZM31 0V0.5H33V0V-0.5H31V0ZM35 0V0.5H37V0V-0.5H35V0ZM39 0V0.5H41V0V-0.5H39V0ZM43 0V0.5H45V0V-0.5H43V0ZM47 0V0.5H49V0V-0.5H47V0ZM51 0V0.5H53V0V-0.5H51V0ZM55 0V0.5H57V0V-0.5H55V0ZM59 0V0.5H61V0V-0.5H59V0ZM63 0V0.5H65V0V-0.5H63V0ZM67 0V0.5H68V0V-0.5H67V0ZM68 0V0.5C68.3042 0.5 68.6056 0.511803 68.9037 0.534962L68.9424 0.0364637L68.9812 -0.462034C68.6573 -0.487193 68.3301 -0.5 68 -0.5V0ZM70.8026 0.329027L70.6862 0.815303C71.2772 0.956689 71.8504 1.1437 72.4019 1.37243L72.5935 0.910566L72.785 0.448704C72.1851 0.199944 71.5616 -0.00347059 70.9189 -0.157248L70.8026 0.329027ZM74.2707 1.76677L74.0091 2.19285C74.5237 2.50887 75.0116 2.8643 75.4686 3.25496L75.7935 2.87491L76.1184 2.49485C75.6219 2.07043 75.0917 1.68419 74.5324 1.3407L74.2707 1.76677ZM77.1251 4.20654L76.745 4.53144C77.1357 4.98841 77.4911 5.47632 77.8072 5.99093L78.2332 5.72929L78.6593 5.46764C78.3158 4.90829 77.9296 4.37811 77.5051 3.88164L77.1251 4.20654ZM79.0894 7.40655L78.6276 7.59808C78.8563 8.14964 79.0433 8.72285 79.1847 9.31379L79.671 9.19745L80.1572 9.0811C80.0035 8.43836 79.8001 7.8149 79.5513 7.21502L79.0894 7.40655ZM79.9635 11.0576L79.465 11.0963C79.4882 11.3944 79.5 11.6958 79.5 12H80H80.5C80.5 11.6699 80.4872 11.3427 80.462 11.0188L79.9635 11.0576ZM80 12H79.5V13H80H80.5V12H80ZM80 15H79.5V17H80H80.5V15H80ZM80 19H79.5V21H80H80.5V19H80ZM80 23H79.5V25H80H80.5V23H80ZM80 27H79.5V29H80H80.5V27H80ZM80 31H79.5V33H80H80.5V31H80ZM80 35H79.5V37H80H80.5V35H80ZM80 39H79.5V41H80H80.5V39H80ZM80 43H79.5V45H80H80.5V43H80ZM80 47H79.5V49H80H80.5V47H80ZM80 51H79.5V53H80H80.5V51H80ZM80 55H79.5V57H80H80.5V55H80ZM80 59H79.5V61H80H80.5V59H80ZM80 63H79.5V65H80H80.5V63H80ZM80 67H79.5V68H80H80.5V67H80ZM80 68H79.5C79.5 68.3042 79.4882 68.6056 79.465 68.9037L79.9635 68.9424L80.462 68.9812C80.4872 68.6573 80.5 68.3301 80.5 68H80ZM79.671 70.8026L79.1847 70.6862C79.0433 71.2772 78.8563 71.8504 78.6276 72.4019L79.0894 72.5935L79.5513 72.785C79.8001 72.1851 80.0035 71.5616 80.1572 70.9189L79.671 70.8026ZM78.2332 74.2707L77.8072 74.0091C77.4911 74.5237 77.1357 75.0116 76.745 75.4686L77.1251 75.7935L77.5051 76.1184C77.9296 75.6219 78.3158 75.0917 78.6593 74.5324L78.2332 74.2707ZM75.7935 77.1251L75.4686 76.745C75.0116 77.1357 74.5237 77.4911 74.0091 77.8072L74.2707 78.2332L74.5324 78.6593C75.0917 78.3158 75.6219 77.9296 76.1184 77.5051L75.7935 77.1251ZM72.5935 79.0894L72.4019 78.6276C71.8504 78.8563 71.2772 79.0433 70.6862 79.1847L70.8026 79.671L70.9189 80.1572C71.5616 80.0035 72.1851 79.8001 72.785 79.5513L72.5935 79.0894ZM68.9424 79.9635L68.9037 79.465C68.6056 79.4882 68.3042 79.5 68 79.5V80V80.5C68.3301 80.5 68.6573 80.4872 68.9812 80.462L68.9424 79.9635ZM68 80V79.5H67V80V80.5H68V80ZM65 80V79.5H63V80V80.5H65V80ZM61 80V79.5H59V80V80.5H61V80ZM57 80V79.5H55V80V80.5H57V80ZM53 80V79.5H51V80V80.5H53V80ZM49 80V79.5H47V80V80.5H49V80ZM45 80V79.5H43V80V80.5H45V80ZM41 80V79.5H39V80V80.5H41V80ZM37 80V79.5H35V80V80.5H37V80ZM33 80V79.5H31V80V80.5H33V80ZM29 80V79.5H27V80V80.5H29V80ZM25 80V79.5H23V80V80.5H25V80ZM21 80V79.5H19V80V80.5H21V80ZM17 80V79.5H15V80V80.5H17V80ZM13 80V79.5H12V80V80.5H13V80ZM12 80V79C11.7087 79 11.4202 78.9887 11.135 78.9665L11.0576 79.9635L10.9801 80.9605C11.3168 80.9867 11.657 81 12 81V80ZM9.19744 79.671L9.43013 78.6984C8.86509 78.5632 8.31701 78.3844 7.7896 78.1657L7.40654 79.0894L7.02349 80.0132C7.64753 80.2719 8.29612 80.4836 8.96476 80.6435L9.19744 79.671ZM5.72928 78.2332L6.25258 77.3811C5.76033 77.0788 5.29356 76.7388 4.85633 76.365L4.20653 77.1251L3.55673 77.8852C4.07295 78.3265 4.62427 78.7282 5.20599 79.0854L5.72928 78.2332ZM2.8749 75.7935L3.63501 75.1437C3.26123 74.7064 2.92121 74.2397 2.61892 73.7474L1.76677 74.2707L0.914619 74.794C1.27184 75.3757 1.67349 75.927 2.1148 76.4433L2.8749 75.7935ZM0.910565 72.5935L1.83429 72.2104C1.61558 71.683 1.43677 71.1349 1.30158 70.5699L0.329027 70.8026L-0.643525 71.0352C-0.483551 71.7039 -0.271938 72.3525 -0.0131608 72.9765L0.910565 72.5935ZM0.0364635 68.9424L1.03346 68.865C1.0113 68.5798 1 68.2913 1 68H0H-1C-1 68.343 -0.986691 68.6832 -0.960532 69.0199L0.0364635 68.9424ZM0 68H1V67H0H-1V68H0ZM0 65H1V63H0H-1V65H0ZM0 61H1V59H0H-1V61H0ZM0 57H1V55H0H-1V57H0ZM0 53H1V51H0H-1V53H0ZM0 49H1V47H0H-1V49H0ZM0 45H1V43H0H-1V45H0ZM0 41H1V39H0H-1V41H0ZM0 37H1V35H0H-1V37H0ZM0 33H1V31H0H-1V33H0ZM0 29H1V27H0H-1V29H0ZM0 25H1V23H0H-1V25H0ZM0 21H1V19H0H-1V21H0ZM0 17H1V15H0H-1V17H0ZM0 13H1V12H0H-1V13H0ZM0 12H1C1 11.7087 1.0113 11.4202 1.03346 11.135L0.0364637 11.0576L-0.960532 10.9801C-0.986691 11.3168 -1 11.657 -1 12H0ZM0.329027 9.19744L1.30158 9.43013C1.43677 8.86509 1.61558 8.31701 1.83429 7.7896L0.910566 7.40654L-0.0131595 7.02349C-0.271936 7.64753 -0.48355 8.29612 -0.643524 8.96476L0.329027 9.19744ZM1.76677 5.72928L2.61892 6.25258C2.92121 5.76033 3.26124 5.29356 3.63501 4.85633L2.87491 4.20653L2.1148 3.55673C1.67349 4.07295 1.27185 4.62427 0.914621 5.20599L1.76677 5.72928ZM4.20654 2.8749L4.85634 3.63501C5.29356 3.26123 5.76033 2.92121 6.25258 2.61892L5.72929 1.76677L5.20599 0.914619C4.62427 1.27184 4.07296 1.67349 3.55674 2.1148L4.20654 2.8749ZM7.40655 0.910565L7.7896 1.83429C8.31701 1.61558 8.86509 1.43677 9.43013 1.30158L9.19745 0.329027L8.96476 -0.643525C8.29612 -0.483551 7.64753 -0.271938 7.02349 -0.0131608L7.40655 0.910565ZM11.0576 0.0364635L11.135 1.03346C11.4202 1.0113 11.7087 1 12 1V0V-1C11.657 -1 11.3168 -0.986691 10.9801 -0.960532L11.0576 0.0364635ZM12 0V1H13V0V-1H12V0ZM15 0V1H17V0V-1H15V0ZM19 0V1H21V0V-1H19V0ZM23 0V1H25V0V-1H23V0ZM27 0V1H29V0V-1H27V0ZM31 0V1H33V0V-1H31V0ZM35 0V1H37V0V-1H35V0ZM39 0V1H41V0V-1H39V0ZM43 0V1H45V0V-1H43V0ZM47 0V1H49V0V-1H47V0ZM51 0V1H53V0V-1H51V0ZM55 0V1H57V0V-1H55V0ZM59 0V1H61V0V-1H59V0ZM63 0V1H65V0V-1H63V0ZM67 0V1H68V0V-1H67V0ZM68 0V1C68.2913 1 68.5798 1.0113 68.865 1.03346L68.9424 0.0364637L69.0199 -0.960532C68.6832 -0.986691 68.343 -1 68 -1V0ZM70.8026 0.329027L70.5699 1.30158C71.1349 1.43677 71.683 1.61558 72.2104 1.83429L72.5935 0.910566L72.9765 -0.0131595C72.3525 -0.271936 71.7039 -0.48355 71.0352 -0.643524L70.8026 0.329027ZM74.2707 1.76677L73.7474 2.61892C74.2397 2.92121 74.7064 3.26124 75.1437 3.63501L75.7935 2.87491L76.4433 2.1148C75.927 1.67349 75.3757 1.27185 74.794 0.914621L74.2707 1.76677ZM77.1251 4.20654L76.365 4.85634C76.7388 5.29356 77.0788 5.76033 77.3811 6.25258L78.2332 5.72929L79.0854 5.20599C78.7282 4.62427 78.3265 4.07296 77.8852 3.55674L77.1251 4.20654ZM79.0894 7.40655L78.1657 7.7896C78.3844 8.31701 78.5632 8.86509 78.6984 9.43013L79.671 9.19745L80.6435 8.96476C80.4836 8.29612 80.2719 7.64753 80.0132 7.02349L79.0894 7.40655ZM79.9635 11.0576L78.9665 11.135C78.9887 11.4202 79 11.7087 79 12H80H81C81 11.657 80.9867 11.3168 80.9605 10.9801L79.9635 11.0576ZM80 12H79V13H80H81V12H80ZM80 15H79V17H80H81V15H80ZM80 19H79V21H80H81V19H80ZM80 23H79V25H80H81V23H80ZM80 27H79V29H80H81V27H80ZM80 31H79V33H80H81V31H80ZM80 35H79V37H80H81V35H80ZM80 39H79V41H80H81V39H80ZM80 43H79V45H80H81V43H80ZM80 47H79V49H80H81V47H80ZM80 51H79V53H80H81V51H80ZM80 55H79V57H80H81V55H80ZM80 59H79V61H80H81V59H80ZM80 63H79V65H80H81V63H80ZM80 67H79V68H80H81V67H80ZM80 68H79C79 68.2913 78.9887 68.5798 78.9665 68.865L79.9635 68.9424L80.9605 69.0199C80.9867 68.6832 81 68.343 81 68H80ZM79.671 70.8026L78.6984 70.5699C78.5632 71.1349 78.3844 71.683 78.1657 72.2104L79.0894 72.5935L80.0132 72.9765C80.2719 72.3525 80.4836 71.7039 80.6435 71.0352L79.671 70.8026ZM78.2332 74.2707L77.3811 73.7474C77.0788 74.2397 76.7388 74.7064 76.365 75.1437L77.1251 75.7935L77.8852 76.4433C78.3265 75.927 78.7282 75.3757 79.0854 74.794L78.2332 74.2707ZM75.7935 77.1251L75.1437 76.365C74.7064 76.7388 74.2397 77.0788 73.7474 77.3811L74.2707 78.2332L74.794 79.0854C75.3757 78.7282 75.927 78.3265 76.4433 77.8852L75.7935 77.1251ZM72.5935 79.0894L72.2104 78.1657C71.683 78.3844 71.1349 78.5632 70.5699 78.6984L70.8026 79.671L71.0352 80.6435C71.7039 80.4836 72.3525 80.2719 72.9765 80.0132L72.5935 79.0894ZM68.9424 79.9635L68.865 78.9665C68.5798 78.9887 68.2913 79 68 79V80V81C68.343 81 68.6832 80.9867 69.0199 80.9605L68.9424 79.9635ZM68 80V79H67V80V81H68V80ZM65 80V79H63V80V81H65V80ZM61 80V79H59V80V81H61V80ZM57 80V79H55V80V81H57V80ZM53 80V79H51V80V81H53V80ZM49 80V79H47V80V81H49V80ZM45 80V79H43V80V81H45V80ZM41 80V79H39V80V81H41V80ZM37 80V79H35V80V81H37V80ZM33 80V79H31V80V81H33V80ZM29 80V79H27V80V81H29V80ZM25 80V79H23V80V81H25V80ZM21 80V79H19V80V81H21V80ZM17 80V79H15V80V81H17V80ZM13 80V79H12V80V81H13V80Z" fill="#B6B6B6" mask="url(#path-5-inside-2_52940_60597)"/>
</g>
<defs>
<linearGradient id="paint0_linear_52940_60597" x1="20" y1="20" x2="20" y2="60" gradientUnits="userSpaceOnUse">
<stop stop-color="#E0E0E0"/>
<stop offset="1" stop-color="white"/>
</linearGradient>
<clipPath id="clip0_52940_60597">
<rect width="80" height="80" rx="12" fill="white"/>
</clipPath>
</defs>
</svg>
