<svg width="80" height="80" viewBox="0 0 80 80" fill="none" xmlns="http://www.w3.org/2000/svg">
<g clip-path="url(#clip0_43821_21490)">
<path d="M0 12C0 5.37258 5.37258 0 12 0H68C74.6274 0 80 5.37258 80 12V68C80 74.6274 74.6274 80 68 80H12C5.37258 80 0 74.6274 0 68V12Z" fill="white"/>
<path d="M15.2139 69.8813L7 80H74L66.3752 70.0468C65.5877 69.0189 64.0744 68.9215 63.1617 69.84C62.266 70.7415 60.7864 70.6672 59.9855 69.6805L56.0624 64.8477C55.3124 63.9237 53.9023 63.9237 53.1523 64.8477C52.4148 65.7561 51.0344 65.7742 50.2735 64.8852L43.1641 56.58C41.5588 54.7046 38.6547 54.7167 37.0651 56.6054L25.8516 69.9283C24.4619 71.5795 21.9124 71.5568 20.5522 69.8813C19.1764 68.1863 16.5897 68.1863 15.2139 69.8813Z" fill="#F7E9FF" stroke="#F7E9FF"/>
<mask id="path-4-inside-1_43821_21490" fill="white">
<path d="M0 12C0 5.37258 5.37258 0 12 0H68C74.6274 0 80 5.37258 80 12V68C80 74.6274 74.6274 80 68 80H12C5.37258 80 0 74.6274 0 68V12Z"/>
</mask>
<path d="M12 1H68V-1H12V1ZM79 12V68H81V12H79ZM68 79H12V81H68V79ZM1 68V12H-1V68H1ZM12 79C5.92487 79 1 74.0751 1 68H-1C-1 75.1797 4.8203 81 12 81V79ZM79 68C79 74.0751 74.0751 79 68 79V81C75.1797 81 81 75.1797 81 68H79ZM68 1C74.0751 1 79 5.92487 79 12H81C81 4.8203 75.1797 -1 68 -1V1ZM12 -1C4.8203 -1 -1 4.8203 -1 12H1C1 5.92487 5.92487 1 12 1V-1Z" fill="white" mask="url(#path-4-inside-1_43821_21490)"/>
<mask id="path-6-inside-2_43821_21490" fill="white">
<path d="M0 12C0 5.37258 5.37258 0 12 0H68C74.6274 0 80 5.37258 80 12V68C80 74.6274 74.6274 80 68 80H12C5.37258 80 0 74.6274 0 68V12Z"/>
</mask>
<path d="M12 79.5C11.6958 79.5 11.3944 79.4882 11.0963 79.465L11.0188 80.462C11.3427 80.4872 11.6699 80.5 12 80.5V79.5ZM9.31379 79.1847C8.72284 79.0433 8.14964 78.8563 7.59807 78.6276L7.21502 79.5513C7.8149 79.8001 8.43836 80.0035 9.0811 80.1572L9.31379 79.1847ZM5.99093 77.8072C5.47631 77.4911 4.98841 77.1357 4.53143 76.745L3.88163 77.5051C4.37811 77.9296 4.90828 78.3158 5.46763 78.6593L5.99093 77.8072ZM3.25496 75.4686C2.8643 75.0116 2.50887 74.5237 2.19285 74.0091L1.34069 74.5324C1.68419 75.0917 2.07043 75.6219 2.49485 76.1184L3.25496 75.4686ZM1.37243 72.4019C1.1437 71.8504 0.956688 71.2772 0.815303 70.6862L-0.157249 70.9189C-0.00347148 71.5616 0.199943 72.1851 0.448702 72.785L1.37243 72.4019ZM0.534962 68.9037C0.511803 68.6056 0.5 68.3042 0.5 68H-0.5C-0.5 68.3301 -0.487193 68.6573 -0.462034 68.9812L0.534962 68.9037ZM0.5 68V67H-0.5V68H0.5ZM0.5 65V63H-0.5V65H0.5ZM0.5 61V59H-0.5V61H0.5ZM0.5 57V55H-0.5V57H0.5ZM0.5 53V51H-0.5V53H0.5ZM0.5 49V47H-0.5V49H0.5ZM0.5 45V43H-0.5V45H0.5ZM0.5 41V39H-0.5V41H0.5ZM0.5 37V35H-0.5V37H0.5ZM0.5 33V31H-0.5V33H0.5ZM0.5 29V27H-0.5V29H0.5ZM0.5 25V23H-0.5V25H0.5ZM0.5 21V19H-0.5V21H0.5ZM0.5 17V15H-0.5V17H0.5ZM0.5 13V12H-0.5V13H0.5ZM0.5 12C0.5 11.6958 0.511803 11.3944 0.534962 11.0963L-0.462034 11.0188C-0.487193 11.3427 -0.5 11.6699 -0.5 12H0.5ZM0.815303 9.31379C0.956689 8.72284 1.1437 8.14964 1.37243 7.59807L0.448704 7.21502C0.199944 7.8149 -0.00347059 8.43836 -0.157248 9.0811L0.815303 9.31379ZM2.19285 5.99093C2.50887 5.47631 2.8643 4.98841 3.25496 4.53143L2.49485 3.88163C2.07043 4.37811 1.68419 4.90828 1.3407 5.46763L2.19285 5.99093ZM4.53144 3.25496C4.98841 2.8643 5.47632 2.50887 5.99093 2.19285L5.46764 1.34069C4.90829 1.68419 4.37811 2.07043 3.88164 2.49485L4.53144 3.25496ZM7.59808 1.37243C8.14964 1.1437 8.72285 0.956688 9.31379 0.815303L9.0811 -0.157249C8.43836 -0.00347148 7.8149 0.199943 7.21502 0.448702L7.59808 1.37243ZM11.0963 0.534962C11.3944 0.511803 11.6958 0.5 12 0.5V-0.5C11.6699 -0.5 11.3427 -0.487193 11.0188 -0.462034L11.0963 0.534962ZM12 0.5H13V-0.5H12V0.5ZM15 0.5H17V-0.5H15V0.5ZM19 0.5H21V-0.5H19V0.5ZM23 0.5H25V-0.5H23V0.5ZM27 0.5H29V-0.5H27V0.5ZM31 0.5H33V-0.5H31V0.5ZM35 0.5H37V-0.5H35V0.5ZM39 0.5H41V-0.5H39V0.5ZM43 0.5H45V-0.5H43V0.5ZM47 0.5H49V-0.5H47V0.5ZM51 0.5H53V-0.5H51V0.5ZM55 0.5H57V-0.5H55V0.5ZM59 0.5H61V-0.5H59V0.5ZM63 0.5H65V-0.5H63V0.5ZM67 0.5H68V-0.5H67V0.5ZM68 0.5C68.3042 0.5 68.6056 0.511803 68.9037 0.534962L68.9812 -0.462034C68.6573 -0.487193 68.3301 -0.5 68 -0.5V0.5ZM70.6862 0.815303C71.2772 0.956689 71.8504 1.1437 72.4019 1.37243L72.785 0.448704C72.1851 0.199944 71.5616 -0.00347059 70.9189 -0.157248L70.6862 0.815303ZM74.0091 2.19285C74.5237 2.50887 75.0116 2.8643 75.4686 3.25496L76.1184 2.49485C75.6219 2.07043 75.0917 1.68419 74.5324 1.3407L74.0091 2.19285ZM76.745 4.53144C77.1357 4.98841 77.4911 5.47632 77.8072 5.99093L78.6593 5.46764C78.3158 4.90829 77.9296 4.37811 77.5051 3.88164L76.745 4.53144ZM78.6276 7.59808C78.8563 8.14964 79.0433 8.72285 79.1847 9.31379L80.1572 9.0811C80.0035 8.43836 79.8001 7.8149 79.5513 7.21502L78.6276 7.59808ZM79.465 11.0963C79.4882 11.3944 79.5 11.6958 79.5 12H80.5C80.5 11.6699 80.4872 11.3427 80.462 11.0188L79.465 11.0963ZM79.5 12V13H80.5V12H79.5ZM79.5 15V17H80.5V15H79.5ZM79.5 19V21H80.5V19H79.5ZM79.5 23V25H80.5V23H79.5ZM79.5 27V29H80.5V27H79.5ZM79.5 31V33H80.5V31H79.5ZM79.5 35V37H80.5V35H79.5ZM79.5 39V41H80.5V39H79.5ZM79.5 43V45H80.5V43H79.5ZM79.5 47V49H80.5V47H79.5ZM79.5 51V53H80.5V51H79.5ZM79.5 55V57H80.5V55H79.5ZM79.5 59V61H80.5V59H79.5ZM79.5 63V65H80.5V63H79.5ZM79.5 67V68H80.5V67H79.5ZM79.5 68C79.5 68.3042 79.4882 68.6056 79.465 68.9037L80.462 68.9812C80.4872 68.6573 80.5 68.3301 80.5 68H79.5ZM79.1847 70.6862C79.0433 71.2772 78.8563 71.8504 78.6276 72.4019L79.5513 72.785C79.8001 72.1851 80.0035 71.5616 80.1572 70.9189L79.1847 70.6862ZM77.8072 74.0091C77.4911 74.5237 77.1357 75.0116 76.745 75.4686L77.5051 76.1184C77.9296 75.6219 78.3158 75.0917 78.6593 74.5324L77.8072 74.0091ZM75.4686 76.745C75.0116 77.1357 74.5237 77.4911 74.0091 77.8072L74.5324 78.6593C75.0917 78.3158 75.6219 77.9296 76.1184 77.5051L75.4686 76.745ZM72.4019 78.6276C71.8504 78.8563 71.2772 79.0433 70.6862 79.1847L70.9189 80.1572C71.5616 80.0035 72.1851 79.8001 72.785 79.5513L72.4019 78.6276ZM68.9037 79.465C68.6056 79.4882 68.3042 79.5 68 79.5V80.5C68.3301 80.5 68.6573 80.4872 68.9812 80.462L68.9037 79.465ZM68 79.5H67V80.5H68V79.5ZM65 79.5H63V80.5H65V79.5ZM61 79.5H59V80.5H61V79.5ZM57 79.5H55V80.5H57V79.5ZM53 79.5H51V80.5H53V79.5ZM49 79.5H47V80.5H49V79.5ZM45 79.5H43V80.5H45V79.5ZM41 79.5H39V80.5H41V79.5ZM37 79.5H35V80.5H37V79.5ZM33 79.5H31V80.5H33V79.5ZM29 79.5H27V80.5H29V79.5ZM25 79.5H23V80.5H25V79.5ZM21 79.5H19V80.5H21V79.5ZM17 79.5H15V80.5H17V79.5ZM13 79.5H12V80.5H13V79.5ZM12 79C11.7087 79 11.4202 78.9887 11.135 78.9665L10.9801 80.9605C11.3168 80.9867 11.657 81 12 81V79ZM9.43013 78.6984C8.86509 78.5632 8.31701 78.3844 7.7896 78.1657L7.02349 80.0132C7.64752 80.2719 8.29612 80.4836 8.96476 80.6435L9.43013 78.6984ZM6.25258 77.3811C5.76033 77.0788 5.29356 76.7388 4.85633 76.365L3.55673 77.8852C4.07295 78.3265 4.62427 78.7281 5.20599 79.0854L6.25258 77.3811ZM3.63501 75.1437C3.26123 74.7064 2.92121 74.2397 2.61892 73.7474L0.914619 74.794C1.27184 75.3757 1.67349 75.927 2.1148 76.4433L3.63501 75.1437ZM1.83429 72.2104C1.61558 71.683 1.43677 71.1349 1.30158 70.5699L-0.643525 71.0352C-0.483551 71.7039 -0.271938 72.3525 -0.0131608 72.9765L1.83429 72.2104ZM1.03346 68.865C1.0113 68.5798 1 68.2913 1 68H-1C-1 68.343 -0.986691 68.6832 -0.960532 69.0199L1.03346 68.865ZM1 68V67H-1V68H1ZM1 65V63H-1V65H1ZM1 61V59H-1V61H1ZM1 57V55H-1V57H1ZM1 53V51H-1V53H1ZM1 49V47H-1V49H1ZM1 45V43H-1V45H1ZM1 41V39H-1V41H1ZM1 37V35H-1V37H1ZM1 33V31H-1V33H1ZM1 29V27H-1V29H1ZM1 25V23H-1V25H1ZM1 21V19H-1V21H1ZM1 17V15H-1V17H1ZM1 13V12H-1V13H1ZM1 12C1 11.7087 1.0113 11.4202 1.03346 11.135L-0.960532 10.9801C-0.986691 11.3168 -1 11.657 -1 12H1ZM1.30158 9.43013C1.43677 8.86509 1.61558 8.31701 1.83429 7.7896L-0.0131595 7.02349C-0.271936 7.64752 -0.48355 8.29612 -0.643524 8.96476L1.30158 9.43013ZM2.61892 6.25258C2.92121 5.76033 3.26124 5.29356 3.63501 4.85633L2.1148 3.55673C1.67349 4.07295 1.27185 4.62427 0.914621 5.20599L2.61892 6.25258ZM4.85634 3.63501C5.29356 3.26123 5.76033 2.92121 6.25258 2.61892L5.20599 0.914619C4.62427 1.27184 4.07296 1.67349 3.55674 2.1148L4.85634 3.63501ZM7.7896 1.83429C8.31701 1.61558 8.86509 1.43677 9.43013 1.30158L8.96476 -0.643525C8.29612 -0.483551 7.64753 -0.271938 7.02349 -0.0131608L7.7896 1.83429ZM11.135 1.03346C11.4202 1.0113 11.7087 1 12 1V-1C11.657 -1 11.3168 -0.986691 10.9801 -0.960532L11.135 1.03346ZM12 1H13V-1H12V1ZM15 1H17V-1H15V1ZM19 1H21V-1H19V1ZM23 1H25V-1H23V1ZM27 1H29V-1H27V1ZM31 1H33V-1H31V1ZM35 1H37V-1H35V1ZM39 1H41V-1H39V1ZM43 1H45V-1H43V1ZM47 1H49V-1H47V1ZM51 1H53V-1H51V1ZM55 1H57V-1H55V1ZM59 1H61V-1H59V1ZM63 1H65V-1H63V1ZM67 1H68V-1H67V1ZM68 1C68.2913 1 68.5798 1.0113 68.865 1.03346L69.0199 -0.960532C68.6832 -0.986691 68.343 -1 68 -1V1ZM70.5699 1.30158C71.1349 1.43677 71.683 1.61558 72.2104 1.83429L72.9765 -0.0131595C72.3525 -0.271936 71.7039 -0.48355 71.0352 -0.643524L70.5699 1.30158ZM73.7474 2.61892C74.2397 2.92121 74.7064 3.26124 75.1437 3.63501L76.4433 2.1148C75.927 1.67349 75.3757 1.27185 74.794 0.914621L73.7474 2.61892ZM76.365 4.85634C76.7388 5.29356 77.0788 5.76033 77.3811 6.25258L79.0854 5.20599C78.7282 4.62427 78.3265 4.07296 77.8852 3.55674L76.365 4.85634ZM78.1657 7.7896C78.3844 8.31701 78.5632 8.86509 78.6984 9.43013L80.6435 8.96476C80.4836 8.29612 80.2719 7.64753 80.0132 7.02349L78.1657 7.7896ZM78.9665 11.135C78.9887 11.4202 79 11.7087 79 12H81C81 11.657 80.9867 11.3168 80.9605 10.9801L78.9665 11.135ZM79 12V13H81V12H79ZM79 15V17H81V15H79ZM79 19V21H81V19H79ZM79 23V25H81V23H79ZM79 27V29H81V27H79ZM79 31V33H81V31H79ZM79 35V37H81V35H79ZM79 39V41H81V39H79ZM79 43V45H81V43H79ZM79 47V49H81V47H79ZM79 51V53H81V51H79ZM79 55V57H81V55H79ZM79 59V61H81V59H79ZM79 63V65H81V63H79ZM79 67V68H81V67H79ZM79 68C79 68.2913 78.9887 68.5798 78.9665 68.865L80.9605 69.0199C80.9867 68.6832 81 68.343 81 68H79ZM78.6984 70.5699C78.5632 71.1349 78.3844 71.683 78.1657 72.2104L80.0132 72.9765C80.2719 72.3525 80.4836 71.7039 80.6435 71.0352L78.6984 70.5699ZM77.3811 73.7474C77.0788 74.2397 76.7388 74.7064 76.365 75.1437L77.8852 76.4433C78.3265 75.927 78.7281 75.3757 79.0854 74.794L77.3811 73.7474ZM75.1437 76.365C74.7064 76.7388 74.2397 77.0788 73.7474 77.3811L74.794 79.0854C75.3757 78.7282 75.927 78.3265 76.4433 77.8852L75.1437 76.365ZM72.2104 78.1657C71.683 78.3844 71.1349 78.5632 70.5699 78.6984L71.0352 80.6435C71.7039 80.4836 72.3525 80.2719 72.9765 80.0132L72.2104 78.1657ZM68.865 78.9665C68.5798 78.9887 68.2913 79 68 79V81C68.343 81 68.6832 80.9867 69.0199 80.9605L68.865 78.9665ZM68 79H67V81H68V79ZM65 79H63V81H65V79ZM61 79H59V81H61V79ZM57 79H55V81H57V79ZM53 79H51V81H53V79ZM49 79H47V81H49V79ZM45 79H43V81H45V79ZM41 79H39V81H41V79ZM37 79H35V81H37V79ZM33 79H31V81H33V79ZM29 79H27V81H29V79ZM25 79H23V81H25V79ZM21 79H19V81H21V79ZM17 79H15V81H17V79ZM13 79H12V81H13V79Z" fill="#B6B6B6" mask="url(#path-6-inside-2_43821_21490)"/>
</g>
<rect width="80" height="80" fill="#DBDBDB" style="mix-blend-mode:color"/>
<defs>
<clipPath id="clip0_43821_21490">
<rect width="80" height="80" rx="12" fill="white"/>
</clipPath>
</defs>
</svg>
