<svg width="1192" height="120" viewBox="0 0 1192 120" fill="none" xmlns="http://www.w3.org/2000/svg">
<g clip-path="url(#clip0)">
<rect width="1192" height="120" rx="12" fill="white"/>
<!-- Clouds -->
<path d="M116.061 67.0228L115.965 67.0193C113.191 66.9183 110.973 64.637 110.973 61.8381C110.973 58.9747 113.294 56.6534 116.158 56.6534C116.764 56.6534 117.344 56.7571 117.883 56.947L118.755 57.2547L119.043 56.3756C119.99 53.4861 122.517 51.3118 125.599 50.8716L126.308 50.7703L126.372 50.0568C127.082 42.1234 133.749 35.9047 141.868 35.9047C149.987 35.9047 156.654 42.1234 157.364 50.0568L157.428 50.7703L158.138 50.8716C162.071 51.4334 165.095 54.8174 165.095 58.9062C165.095 63.3888 161.461 67.0228 156.979 67.0228H116.061Z" fill="#F7E9FF" stroke="#F7E9FF" stroke-width="1.8093"/>
<path d="M972.137 68.5477L972.193 68.5457C973.806 68.4869 975.095 67.1604 975.095 65.533C975.095 63.868 973.746 62.5183 972.081 62.5183C971.727 62.5183 971.39 62.5786 971.078 62.6889L970.205 62.9965L969.917 62.1175C969.345 60.3724 967.819 59.0593 965.958 58.7936L965.249 58.6923L965.185 57.9788C964.743 53.0372 960.589 49.1634 955.532 49.1634C950.475 49.1634 946.322 53.0372 945.879 57.9788L945.815 58.6923L945.106 58.7936C942.731 59.1329 940.905 61.1769 940.905 63.6459C940.905 66.3531 943.099 68.5477 945.806 68.5477H972.137Z" fill="#F7E9FF" stroke="#F7E9FF" stroke-width="1.8093"/>
<path d="M97.8241 43.0232L97.8656 43.0217C99.0664 42.978 100.027 41.99 100.027 40.778C100.027 39.5381 99.0218 38.5329 97.7818 38.5329C97.5184 38.5329 97.2674 38.5779 97.0349 38.6599L96.1625 38.9675L95.8743 38.0885C95.4353 36.7492 94.2634 35.7415 92.8366 35.5377L92.1273 35.4364L92.0634 34.7229C91.7159 30.8424 88.454 27.8002 84.4826 27.8002C80.5112 27.8002 77.2493 30.8424 76.9018 34.7229L76.8379 35.4364L76.1286 35.5377C74.3061 35.798 72.9047 37.3669 72.9047 39.2614C72.9047 41.339 74.5889 43.0232 76.6664 43.0232H97.8241Z" fill="#F7E9FF" stroke="#F7E9FF" stroke-width="1.8093"/>
<!-- Mountains -->
<path d="M1133.23 100.424L1163 120H871L890.577 107.127C892.188 106.068 894.275 106.068 895.886 107.127C897.497 108.187 899.584 108.187 901.195 107.127L921.676 93.6608C923.343 92.5645 925.502 92.5645 927.17 93.6608L954.526 111.648C956.193 112.745 958.352 112.745 960.02 111.648L964.148 108.934C965.816 107.837 967.975 107.837 969.642 108.934L971.78 110.339C973.448 111.435 975.607 111.435 977.274 110.339L988.703 102.824C990.37 101.728 992.53 101.728 994.197 102.824L1005.63 110.339C1007.29 111.435 1009.45 111.435 1011.12 110.339L1032.5 96.279C1034.17 95.1827 1036.33 95.1827 1038 96.279L1040.47 97.9028C1042.13 98.9991 1044.29 98.9991 1045.96 97.9028L1064.36 85.8063C1066.02 84.71 1068.18 84.71 1069.85 85.8063L1107.16 110.339C1108.83 111.435 1110.99 111.435 1112.66 110.339L1127.73 100.424C1129.4 99.3282 1131.56 99.3281 1133.23 100.424Z" fill="#F7E9FF" stroke="#F7E9FF"/>
<path d="M87.2288 100.424L117 120H-175L-155.423 107.127C-153.812 106.068 -151.725 106.068 -150.114 107.127C-148.503 108.187 -146.416 108.187 -144.805 107.127L-124.324 93.6608C-122.657 92.5645 -120.498 92.5645 -118.83 93.6608L-91.4743 111.648C-89.807 112.745 -87.6475 112.745 -85.9803 111.648L-81.8516 108.934C-80.1843 107.837 -78.0248 107.837 -76.3575 108.934L-74.2198 110.339C-72.5525 111.435 -70.393 111.435 -68.7257 110.339L-57.297 102.824C-55.6297 101.728 -53.4703 101.728 -51.803 102.824L-40.3743 110.339C-38.707 111.435 -36.5475 111.435 -34.8802 110.339L-13.497 96.279C-11.8297 95.1827 -9.67026 95.1827 -8.00297 96.279L-5.5334 97.9028C-3.86611 98.9991 -1.70662 98.9991 -0.0393372 97.9028L18.3575 85.8063C20.0248 84.71 22.1843 84.71 23.8516 85.8063L61.1621 110.339C62.8293 111.435 64.9888 111.435 66.6561 110.339L81.7348 100.424C83.4021 99.3282 85.5616 99.3281 87.2288 100.424Z" fill="#F7E9FF" stroke="#F7E9FF"/>
<!-- Crescent -->
<path d="M1144 -5.88923e-06C1144 -26.5097 1165.49 -48 1192 -48C1218.51 -48 1240 -26.5097 1240 2.50336e-06C1240 26.5097 1218.51 48 1192 48C1165.49 48 1144 26.5097 1144 -5.88923e-06Z" stroke="#F7E9FF" stroke-width="30"/>
<!-- Desaturation overlay -->
<rect width="1192" height="120" rx="12" fill="#DBDBDB" style="mix-blend-mode:color"/>
<!-- Purple hover tint gradient (white → lavender, subtle) -->
<rect width="1192" height="120" rx="12" fill="url(#hoverGradient)" opacity="0.15"/>
<!-- Dashed border -->
<rect x="0.5" y="0.5" width="1191" height="119" rx="11.5" stroke="#DBDBDB" stroke-dasharray="4 4"/>
</g>
<defs>
<clipPath id="clip0">
<rect width="1192" height="120" rx="12" fill="white"/>
</clipPath>
<linearGradient id="hoverGradient" x1="0" y1="0" x2="1192" y2="120" gradientUnits="userSpaceOnUse">
<stop stop-color="white"/>
<stop offset="1" stop-color="#F7E9FF"/>
</linearGradient>
</defs>
</svg>
